<?xml version="1.0" encoding="UTF-8" standalone="no"?>
<svg
   xmlns:dc="http://purl.org/dc/elements/1.1/"
   xmlns:cc="http://creativecommons.org/ns#"
   xmlns:rdf="http://www.w3.org/1999/02/22-rdf-syntax-ns#"
   xmlns:svg="http://www.w3.org/2000/svg"
   xmlns="http://www.w3.org/2000/svg"
   width="259.10553mm"
   height="259.19446mm"
   viewBox="0 0 259.10553 259.19446"
   version="1.1"
   id="svg8">
  <defs
     id="defs2" />
  <metadata
     id="metadata5">
    <rdf:RDF>
      <cc:Work
         rdf:about="">
        <dc:format>image/svg+xml</dc:format>
        <dc:type
           rdf:resource="http://purl.org/dc/dcmitype/StillImage" />
        <dc:title></dc:title>
      </cc:Work>
    </rdf:RDF>
  </metadata>
  <g
     id="layer1"
     transform="translate(181.31816,-60.934388)">
    <path
       style="fill:#ffffff;stroke-width:0.264583"
       d="m -58.593799,320.00734 c -38.518343,-2.06035 -74.134851,-21.20066 -97.156261,-52.21177 -26.7719,-36.06322 -32.98414,-83.41398 -16.43552,-125.27422 12.35111,-31.2425 37.48717,-57.223359 68.48032,-70.781868 23.558987,-10.306299 49.4969,-13.311657 75.141668,-8.706467 16.814005,3.019395 33.2064052,9.546093 47.624995,18.962073 21.27205,13.891593 38.2809,34.021652 48.23021,57.080692 5.28231,12.24256 8.49839,24.56958 10.0092,38.36458 0.64184,5.8606 0.65033,19.73531 0.0156,25.5323 -2.94154,26.86611 -12.85,50.35427 -29.8568,70.77604 -2.8485,3.42048 -10.16272,10.8945 -13.71386,14.01347 -21.7799,19.12935 -48.86378,30.32096 -77.7875,32.14337 -3.973732,0.25038 -10.872266,0.29864 -14.552082,0.1018 z M 22.104113,195.16745 c 0,-23.93818 -0.0599,-43.52396 -0.13316,-43.52396 -0.0732,0 -16.7015098,12.27313 -36.95169,27.27363 -28.749181,21.29619 -36.918483,27.22542 -37.274567,27.05365 -0.250817,-0.121 -16.842626,-12.36436 -36.870689,-27.20749 -20.028057,-14.84312 -36.532087,-27.02719 -36.675607,-27.07569 -0.17084,-0.0577 -0.26095,14.94823 -0.26095,43.45781 v 43.546 h 74.083334 74.083329 z M -9.8202368,166.46016 c 17.40193,-12.8786 31.6443398,-23.50493 31.6498198,-23.61407 0.005,-0.10914 -33.23495,-0.19843 -73.867595,-0.19843 -72.510468,0 -73.867888,0.009 -73.355728,0.50119 0.287,0.27566 16.93253,12.64979 36.990059,27.49808 l 36.468243,26.99688 5.237673,-3.88402 c 2.880719,-2.1362 19.475608,-14.42104 36.8775282,-27.29963 z"
       id="path844" />
  </g>
</svg>
