<?xml version="1.0" encoding="UTF-8" standalone="no"?>
<svg
   xmlns:dc="http://purl.org/dc/elements/1.1/"
   xmlns:cc="http://creativecommons.org/ns#"
   xmlns:rdf="http://www.w3.org/1999/02/22-rdf-syntax-ns#"
   xmlns:svg="http://www.w3.org/2000/svg"
   xmlns="http://www.w3.org/2000/svg"
   xmlns:sodipodi="http://sodipodi.sourceforge.net/DTD/sodipodi-0.dtd"
   xmlns:inkscape="http://www.inkscape.org/namespaces/inkscape"
   width="592.30078mm"
   height="635.10229mm"
   viewBox="0 0 592.30078 635.10229"
   version="1.1"
   id="svg8"
   inkscape:version="1.0.2 (e86c870879, 2021-01-15)"
   sodipodi:docname="mastodon.svg">
  <defs
     id="defs2" />
  <sodipodi:namedview
     id="base"
     pagecolor="#ffffff"
     bordercolor="#666666"
     borderopacity="1.0"
     inkscape:pageopacity="0.0"
     inkscape:pageshadow="2"
     inkscape:zoom="0.19263457"
     inkscape:cx="1394.9004"
     inkscape:cy="1246.7549"
     inkscape:document-units="px"
     inkscape:current-layer="layer1"
     inkscape:document-rotation="0"
     showgrid="false"
     fit-margin-top="0"
     fit-margin-left="0"
     fit-margin-right="0"
     fit-margin-bottom="0"
     inkscape:window-width="1565"
     inkscape:window-height="875"
     inkscape:window-x="1395"
     inkscape:window-y="0"
     inkscape:window-maximized="1" />
  <metadata
     id="metadata5">
    <rdf:RDF>
      <cc:Work
         rdf:about="">
        <dc:format>image/svg+xml</dc:format>
        <dc:type
           rdf:resource="http://purl.org/dc/dcmitype/StillImage" />
        <dc:title></dc:title>
      </cc:Work>
    </rdf:RDF>
  </metadata>
  <g
     inkscape:label="Layer 1"
     inkscape:groupmode="layer"
     id="layer1"
     transform="translate(278.74799,187.81884)">
    <path
       style="fill:#2f87d3;stroke:none;stroke-width:0.264583"
       d="M 127.42381,368.76769 C 76.097288,383.333 21.960888,386.93134 -30.797032,379.15788 c -25.42117,-3.74386 -51.29318,-13.72659 -65.60265,-36.31936 -3.41921,-5.3975 -6.172988,-11.37708 -8.125088,-17.4625 -3.99626,-12.45923 -5.38268,-25.60902 -5.38268,-38.62916 3.63643,1.36525 7.83405,1.88383 11.641668,2.64583 6.51616,1.30175 13.02649,2.61938 19.57917,3.72533 20.38667,3.44223 40.81542,6.23623 61.38333,8.2259 43.70123,4.22804 86.81773,2.77283 130.439592,-1.5875 17.36725,-1.73567 35.04935,-3.26496 52.12292,-7.03527 38.65827,-8.54075 76.88262,-25.34973 106.09792,-52.56477 10.56481,-9.83986 20.11362,-21.53973 25.81539,-34.90119 4.064,-9.52235 5.26786,-20.01308 6.83948,-30.1625 2.81517,-18.15041 4.73869,-36.47016 5.99811,-54.76875 1.57162,-22.84677 2.59556,-45.61972 3.15383,-68.52708 0.49742,-20.25412 0.84667,-40.68101 -1.10596,-60.8541697 -3.86556,-39.9287983 -17.81969,-80.8960883 -44.21717,-111.6541703 -8.49048,-9.89409 -17.78,-18.81822 -28.23369,-26.62396 -13.16037,-9.82662 -28.321,-15.45286 -43.92083,-20.1332 -22.59806,-6.77982 -45.96871,-10.60032 -69.32084,-13.64237 -44.024022,-5.73493 -89.254542,-7.96251 -133.6145816,-6.02128 -33.8497404,1.4813 -67.4819804,3.1555 -101.0708384,8.3648 -19.91651,3.08888 -39.83461,7.01487 -59.00208,13.34124 -8.36163,2.75985 -16.83862,5.66042 -24.60625,9.87153 -15.92263,8.63177 -29.58598,21.37066 -41.20224,35.10783 -25.92044,30.652772 -40.10941,70.948812 -43.94869,110.5958303 -1.71303,17.69004 -1.63241,35.3996597 -1.63241,53.1812497 0,71.29727 -1.33834,143.21632 12.2229,213.51875 7.67871,39.80656 20.63729,80.38042 45.51845,112.97708 18.09141,23.70138 41.69621,41.83857 69.25865,53.17861 18.45152,7.59089 38.41592,11.79512 57.943748,15.56014 42.53892,8.20738 86.0134004,11.02255 129.11668,6.71248 24.24906,-2.42358 48.29439,-7.14639 71.437502,-14.86164 5.715,-1.905 11.43529,-3.95817 16.93333,-6.43202 1.59544,-0.71702 4.78367,-1.52136 5.8129,-2.99773 0.59266,-0.84667 0.27781,-2.55323 0.27252,-3.53484 -0.0159,-3.08239 -0.44979,-6.18066 -0.52652,-9.26041 -0.23284,-9.51971 -0.65088,-19.07911 -1.30175,-28.575 -0.23548,-3.4343 0.42068,-7.55121 -0.55298,-10.84792 M 17.621718,-13.555228 c 0.65881,-2.08042 2.13254,-3.93514 3.21469,-5.82083 2.40242,-4.18544 4.93977,-8.29707 7.42156,-12.43542 8.6069,-14.3465 18.02871,-27.31214 32.75542,-35.98042 42.523832,-25.03011 103.515592,-11.99065 129.262192,30.68876 18.07104,29.9537383 16.78781,63.955348 16.78781,97.631248 V 198.37603 H 140.91756 V 66.08436 40.15519 c 0,-12.39387 -0.49213,-25.77835 -6.99823,-36.7770797 C 117.81414,-23.841958 72.319038,-20.216638 58.044758,6.8176903 49.530468,22.94669 50.165468,41.78185 50.165468,59.46978 v 75.14166 h -65.61667 V 59.46978 c 0,-18.07158 0.60643,-37.04723 -8.28384,-53.4458397 -8.58573,-15.83743 -25.45291,-21.6598483 -42.51616,-20.9123983 -12.80001,0.56039 -25.18674,5.5837583 -32.11645,16.9436483 C -109.67329,20.58899 -106.20328,45.34658 -106.20328,66.08436 v 132.29167 h -66.14584 v -133.35 c 0,-28.13527 -2.28362,-57.9368797 8.32115,-84.666668 7.13184,-17.97685 18.2118,-33.63516 34.27677,-44.70771 31.007578,-21.37225 77.786438,-21.37516 108.743748,0 12.6973604,8.76644 20.68777041,21.15503 28.4691704,34.12437 3.2676096,5.44513 6.1092296,11.77555 10.1599996,16.66875 z"
       id="path844" />
  </g>
</svg>
